<?xml version="1.0" encoding="UTF-8"?>
<svg id="Template_data-icon-690913.png" data-name="Template data-icon-690913.png" xmlns="http://www.w3.org/2000/svg" viewBox="0 0 1114.42 440.31">
  <defs>
    <style>
      .cls-1 {
        font-family: Bauhaus93, 'Bauhaus 93';
        font-size: 361.99px;
      }

      .cls-2 {
        fill: #0072bc;
      }

      .cls-2, .cls-3 {
        stroke-width: 0px;
      }

      .cls-3 {
        fill: #fff;
      }
    </style>
  </defs>
  <g>
    <path class="cls-2" d="M356.49,93.08c-.02-5.97-1.27-12.23-3.35-17.84-5.38-14.49-16.6-24.01-29.5-31.66-23.47-13.92-49.4-20.41-76.01-24.57-26.72-4.18-53.6-5.36-80.61-3.81-23.6,1.35-46.92,4.43-69.73,10.73-18.73,5.18-36.74,12.02-52.4,23.93-15.77,11.99-24.18,27.27-23.84,47.73.6,36.17.17,72.36.17,108.54s.15,74.1-.07,111.15c-.1,15.29,5.36,27.92,16.13,38.48,13.06,12.8,29.13,20.36,46.1,26.22,24.44,8.45,49.73,12.6,75.44,14.52,40.1,3,79.79.55,118.84-9.43,19.8-5.06,38.78-12.2,55.27-24.71,14.31-10.85,23.7-24.55,23.71-43.23.03-75.35.08-150.7-.15-226.05ZM296.72,194.07c-6.45-.04-11.88-5.54-11.83-11.99.05-6.52,5.44-11.84,11.98-11.81,6.45.02,11.89,5.52,11.84,11.98-.06,6.51-5.49,11.86-11.99,11.82ZM322.36,72.03c-.64-.59-1.3-1.16-1.98-1.71-8.88-7.3-19.03-12.27-29.74-16.18-32.77-11.97-66.88-15.45-98.89-15.88-35.03.23-67.06,3.47-98.08,13.6-13.57,4.43-26.63,10.02-37.51,19.61-14.82,13.06-14.83,28.44-.13,41.64.46.42.95.81,1.43,1.2,10.67,8.8,23.13,14.15,36.09,18.42,24.81,8.16,50.41,11.81,76.42,13.07,37.12,1.79,73.78-.98,109.57-11.56,15.37-4.54,30.18-10.51,42.41-21.34,14.38-12.75,14.47-27.84.41-40.87ZM332.76,135.95c-8.43,4.47-16.31,9.32-24.7,13-30.35,13.28-62.55,18.3-95.32,20.41-27.75,1.79-55.39.51-82.87-3.77-21.88-3.41-43.31-8.56-63.4-18.13-7.25-3.45-14.1-7.74-21.47-11.83v3.66c.01,11.6.22,23.21-.04,34.81-.18,8.47,2.84,15.53,9,20.93,5.03,4.4,10.47,8.56,16.33,11.74,21.92,11.9,45.94,17,70.38,20.31,24.43,3.32,48.99,3.98,73.6,2.26,27.36-1.9,54.26-6.16,79.94-16.27,11.56-4.55,22.54-10.14,31.14-19.46,3.88-4.21,7.17-9.02,7.3-14.82.32-14.32.11-28.66.11-42.84ZM296.72,194.07c-6.45-.04-11.88-5.54-11.83-11.99.05-6.52,5.44-11.84,11.98-11.81,6.45.02,11.89,5.52,11.84,11.98-.06,6.51-5.49,11.86-11.99,11.82ZM332.73,203.21c-8.8,8.56-18.43,14.2-28.76,18.69-25.46,11.07-52.39,15.99-79.81,18.48-36.87,3.34-73.57,1.86-109.84-5.92-24.81-5.32-48.77-12.79-68.3-30.16-.12-.11-.43-.02-.99-.02v3.61c-.01,13.1.05,26.21-.05,39.31-.05,5.73,1.69,10.75,5.08,15.3,6.38,8.56,15.15,14.03,24.57,18.5,25.02,11.86,51.83,16.8,79.12,19.44,22.78,2.19,45.59,2.2,68.42.15,21.43-1.93,42.54-5.46,62.98-12.29,14.02-4.69,27.51-10.54,38.44-20.96,4.81-4.59,8.83-10,9.01-16.74.4-15.44.13-30.89.13-47.39ZM332.79,275.24c-13.9,12.87-29.98,19.98-46.98,25.3-26,8.14-52.76,11.76-79.9,12.88-37.12,1.54-73.8-1.34-109.66-11.61-15.9-4.55-31.18-10.57-44.42-20.84-2.12-1.64-4.13-3.41-6.63-5.48-.09,1.7-.19,2.77-.19,3.84-.01,13.1.06,26.21-.03,39.31-.04,5.86,1.35,11.45,5.34,15.54,5.08,5.22,10.49,10.48,16.67,14.19,22.67,13.63,48.1,18.88,73.89,22.45,24.3,3.36,48.74,3.99,73.22,2.27,27.35-1.92,54.26-6.15,79.92-16.32,11.9-4.72,23.21-10.48,31.89-20.29,3.8-4.3,6.73-9.2,6.81-15.04.2-15.08.07-30.17.07-46.2Z"/>
    <path class="cls-3" d="M321.95,112.9c-12.23,10.83-27.04,16.8-42.41,21.34-35.79,10.58-72.45,13.35-109.57,11.56-26.01-1.26-51.61-4.91-76.42-13.07-12.96-4.27-25.42-9.62-36.09-18.42-.48-.39-.97-.78-1.43-1.2-14.7-13.2-14.69-28.58.13-41.64,10.88-9.59,23.94-15.18,37.51-19.61,31.02-10.13,63.05-13.37,98.08-13.6,32.01.43,66.12,3.91,98.89,15.88,10.71,3.91,20.86,8.88,29.74,16.18.68.55,1.34,1.12,1.98,1.71,14.06,13.03,13.97,28.12-.41,40.87Z"/>
    <path class="cls-3" d="M332.73,203.21c-8.8,8.56-18.43,14.2-28.76,18.69-25.46,11.07-52.39,15.99-79.81,18.48-36.87,3.34-73.57,1.86-109.84-5.92-24.81-5.32-48.77-12.79-68.3-30.16-.12-.11-.43-.02-.99-.02v3.61c-.01,13.1.05,26.21-.05,39.31-.05,5.73,1.69,10.75,5.08,15.3,6.38,8.56,15.15,14.03,24.57,18.5,25.02,11.86,51.83,16.8,79.12,19.44,22.78,2.19,45.59,2.2,68.42.15,21.43-1.93,42.54-5.46,62.98-12.29,14.02-4.69,27.51-10.54,38.44-20.96,4.81-4.59,8.83-10,9.01-16.74.4-15.44.13-30.89.13-47.39ZM296.91,265.92c-6.53.08-11.93-5.22-12-11.76-.06-6.57,5.2-11.93,11.76-11.99,6.51-.07,11.95,5.26,12.01,11.75.06,6.49-5.26,11.92-11.77,12Z"/>
    <path class="cls-3" d="M332.79,275.24c-13.9,12.87-29.98,19.98-46.98,25.3-26,8.14-52.76,11.76-79.9,12.88-37.12,1.54-73.8-1.34-109.66-11.61-15.9-4.55-31.18-10.57-44.42-20.84-2.12-1.64-4.13-3.41-6.63-5.48-.09,1.7-.19,2.77-.19,3.84-.01,13.1.06,26.21-.03,39.31-.04,5.86,1.35,11.45,5.34,15.54,5.08,5.22,10.49,10.48,16.67,14.19,22.67,13.63,48.1,18.88,73.89,22.45,24.3,3.36,48.74,3.99,73.22,2.27,27.35-1.92,54.26-6.15,79.92-16.32,11.9-4.72,23.21-10.48,31.89-20.29,3.8-4.3,6.73-9.2,6.81-15.04.2-15.08.07-30.17.07-46.2ZM296.61,337.82c-6.51-.11-11.82-5.57-11.72-12.08.1-6.46,5.61-11.82,12.09-11.73,6.5.09,11.84,5.58,11.73,12.07-.11,6.46-5.66,11.85-12.1,11.74Z"/>
    <path class="cls-3" d="M332.76,135.95c-8.43,4.47-16.31,9.32-24.7,13-30.35,13.28-62.55,18.3-95.32,20.41-27.75,1.79-55.39.51-82.87-3.77-21.88-3.41-43.31-8.56-63.4-18.13-7.25-3.45-14.1-7.74-21.47-11.83v3.66c.01,11.6.22,23.21-.04,34.81-.18,8.47,2.84,15.53,9,20.93,5.03,4.4,10.47,8.56,16.33,11.74,21.92,11.9,45.94,17,70.38,20.31,24.43,3.32,48.99,3.98,73.6,2.26,27.36-1.9,54.26-6.16,79.94-16.27,11.56-4.55,22.54-10.14,31.14-19.46,3.88-4.21,7.17-9.02,7.3-14.82.32-14.32.11-28.66.11-42.84ZM296.72,194.07c-6.45-.04-11.88-5.54-11.83-11.99.05-6.52,5.44-11.84,11.98-11.81,6.45.02,11.89,5.52,11.84,11.98-.06,6.51-5.49,11.86-11.99,11.82Z"/>
    <path class="cls-2" d="M308.71,182.25c-.06,6.51-5.49,11.86-11.99,11.82-6.45-.04-11.88-5.54-11.83-11.99.05-6.52,5.44-11.84,11.98-11.81,6.45.02,11.89,5.52,11.84,11.98Z"/>
  </g>
  <text class="cls-1" transform="translate(391.65 337.83) scale(.8 1)"><tspan x="0" y="0">DQM</tspan></text>
</svg>